# xmcd
#
# Track frame offsets:
#	150
#	12190
#	26902
#	44730
#	61097
#	81797
#	100200
#	113987
#	127422
#	139075
#	150860
#	168520
#	187650
#	206185
#	220457
#	236260
#	250920
#	269445
#	287070
#	298337
#
# Disc length: 4285 seconds
#
# Revision: 1
# Processed by: cddbd v1.5.2PL0 Copyright (c) Steve Scherf et al.
# Submitted via: audiograbber 1.83.01
#
DISCID=2f10bb14
DTITLE=Diversen - Arbeidsvitaminen
DYEAR=1900
DGENRE=
TTITLE0=Alvin Stardust - Pretend
TTITLE1=Tony Orlando - Tie a yellow ribbon
TTITLE2=Louise Tucker - Midnight blue
TTITLE3=George Baker Selection - Una paloma blanca
TTITLE4=Oscar Harris - Try a little love
TTITLE5=Guys and Dolls - Broken dreams
TTITLE6=Engelbert Humperdinck - My cherie amour
TTITLE7=Luv - Yes i do
TTITLE8=Tracey Ullman - Breakaway
TTITLE9=Vulcano - Een beetje meer
TTITLE10=The Trammps - Hold back the night
TTITLE11=Rob de Nijs - Malle Babbe
TTITLE12=Gary Puckett - Young girl
TTITLE13=Dominic Grant - Just a little in love
TTITLE14=Sommerset - Viva la musica
TTITLE15=Nico Landers - Liefde in de nacht
TTITLE16=Next One - Medley Cats forever
TTITLE17=Stampvast - Mooi Volendam
TTITLE18=Ronnie Tober - Iedere avond
TTITLE19=Meat Loaf - Heroes
EXTD=
EXTT0=
EXTT1=
EXTT2=
EXTT3=
EXTT4=
EXTT5=
EXTT6=
EXTT7=
EXTT8=
EXTT9=
EXTT10=
EXTT11=
EXTT12=
EXTT13=
EXTT14=
EXTT15=
EXTT16=
EXTT17=
EXTT18=
EXTT19=
PLAYORDER=
